<?xml version="1.0" encoding="utf-8"?>
<!-- Generator: Adobe Illustrator 26.3.1, SVG Export Plug-In . SVG Version: 6.00 Build 0)  -->
<svg version="1.1" id="Слой_1" xmlns="http://www.w3.org/2000/svg" xmlns:xlink="http://www.w3.org/1999/xlink" x="0px" y="0px"
	 viewBox="0 0 67 67" style="enable-background:new 0 0 67 67;" xml:space="preserve" fill='#45a29e'>
<rect x="6.3" y="3.8" width="2.8" height="1"/>
<rect x="12.3" y="3.8" width="2.8" height="1"/>
<rect x="18.2" y="3.8" width="2.8" height="1"/>
<polygon points="36.2,41.1 44.3,29.2 49.2,33.3 54.8,26.1 61.5,31 61.5,41.1 "/>
<path d="M1,1c0,9.8,0,55.3,0,64c0.3,0,0.7,0,1,0V7.5h63v57.4c0.3,0,0.7,0,1,0c0-7.4,0-52.1,0-63.9H1z M65,6.5H2V2h63V6.5z"/>
<rect x="38.1" y="3.8" width="22.6" height="1"/>
<rect x="5.5" y="45" width="15" height="1"/>
<rect x="36.2" y="45" width="13.5" height="1"/>
<rect x="5.5" y="48.9" width="25.3" height="1"/>
<rect x="36.2" y="48.9" width="25.3" height="1"/>
<rect x="5.5" y="52.8" width="15" height="1"/>
<rect x="36.2" y="52.8" width="13.5" height="1"/>
<rect x="5.5" y="56.7" width="25.3" height="1"/>
<rect x="36.2" y="56.7" width="25.3" height="1"/>
<rect x="5.5" y="60.6" width="15" height="1"/>
<rect x="36.2" y="60.6" width="13.5" height="1"/>
<path d="M31.3,41.6v-31H5v31C14.2,41.6,22.2,41.6,31.3,41.6z M6.5,40.6l7.3-10.7l4.1,3.5l-1.6,2.1c-0.2,0.2-0.1,0.5,0.1,0.7
	c0.2,0.2,0.5,0.1,0.7-0.1l1.9-2.5l5.3-6.9l6.1,4.5v9.4L6.5,40.6L6.5,40.6z M30.3,11.5V30l-5.9-4.3c-0.2-0.2-0.5-0.1-0.7,0.1
	l-5.3,6.9L14,28.8c-0.1-0.1-0.2-0.1-0.4-0.1c-0.1,0-0.3,0.1-0.3,0.2L6,39.5V11.5H30.3z"/>
<path d="M17.6,27.6c1.7,0,3.1-1.4,3.1-3.1s-1.4-3.1-3.1-3.1s-3.1,1.4-3.1,3.1S15.9,27.6,17.6,27.6z M17.6,22.4
	c1.1,0,2.1,0.9,2.1,2.1s-0.9,2.1-2.1,2.1s-2.1-0.9-2.1-2.1S16.5,22.4,17.6,22.4z M35.7,41.6c9.2,0,17.2,0,26.3,0v-31H35.7
	C35.7,27.9,35.7,2.1,35.7,41.6z M37.1,40.6l7.3-10.6l4.1,3.5L47,35.5c-0.2,0.2-0.1,0.5,0.1,0.7c0.2,0.2,0.5,0.1,0.7-0.1l1.9-2.5
	l5.3-6.9l6.1,4.5v9.4L37.1,40.6L37.1,40.6z M61,11.5V30l-5.9-4.3c-0.2-0.2-0.5-0.1-0.7,0.1l-5.3,6.9l-4.5-3.8
	c-0.1-0.1-0.2-0.1-0.4-0.1c-0.1,0-0.3,0.1-0.3,0.2l-7.3,10.6V11.5H61z"/>
<path d="M48.3,27.6c1.7,0,3.1-1.4,3.1-3.1s-1.4-3.1-3.1-3.1c-1.7,0-3.1,1.4-3.1,3.1S46.6,27.6,48.3,27.6z M48.3,22.4
	c1.1,0,2.1,0.9,2.1,2.1s-0.9,2.1-2.1,2.1c-1.1,0-2.1-0.9-2.1-2.1S47.1,22.4,48.3,22.4z"/>
</svg>
