<?xml version="1.0" encoding="utf-8"?>
<!-- Generator: Adobe Illustrator 26.3.1, SVG Export Plug-In . SVG Version: 6.00 Build 0)  -->
<svg version="1.1" id="Слой_1" xmlns="http://www.w3.org/2000/svg" xmlns:xlink="http://www.w3.org/1999/xlink" x="0px" y="0px"
	 viewBox="0 0 65 63.7" style="enable-background:new 0 0 65 63.7;" xml:space="preserve"
	 fill='#45a29e'
	 preserveAspectRatio="none">
<rect x="5.3" y="2.8" width="2.8" height="1"/>
<rect x="11.3" y="2.8" width="2.8" height="1"/>
<rect x="17.2" y="2.8" width="2.8" height="1"/>
<polygon points="35.2,40.1 43.3,28.2 48.2,32.3 53.8,25.1 60.5,30 60.5,40.1 "/>
<path d="M64,63.7c0.2,0,0.3,0,0.5,0c0.2,0,0.3,0,0.5,0V0H0v63.7c0.1,0,0.3,0,0.4,0c0.2,0,0.4,0,0.6,0V6.5h63V63.7z M1,5.5V1h63v4.5
	H1z"/>
<rect x="37.1" y="2.8" width="22.6" height="1"/>
<rect x="4.5" y="44" width="15" height="1"/>
<rect x="35.2" y="44" width="13.5" height="1"/>
<rect x="4.5" y="47.9" width="25.3" height="1"/>
<rect x="35.2" y="47.9" width="25.3" height="1"/>
<rect x="4.5" y="51.8" width="15" height="1"/>
<rect x="35.2" y="51.8" width="13.5" height="1"/>
<rect x="4.5" y="55.7" width="25.3" height="1"/>
<rect x="35.2" y="55.7" width="25.3" height="1"/>
<rect x="4.5" y="59.6" width="15" height="1"/>
<rect x="35.2" y="59.6" width="13.5" height="1"/>
<path d="M30.3,40.6v-31H4v31C13.2,40.6,21.2,40.6,30.3,40.6z M5.5,39.6l7.3-10.7l4.1,3.5l-1.6,2.1c-0.2,0.2-0.1,0.5,0.1,0.7
	s0.5,0.1,0.7-0.1l1.9-2.5l5.3-6.9l6.1,4.5v9.4H5.5L5.5,39.6z M29.3,10.5V29l-5.9-4.3c-0.2-0.2-0.5-0.1-0.7,0.1l-5.3,6.9L13,27.8
	c-0.1-0.1-0.2-0.1-0.4-0.1c-0.1,0-0.3,0.1-0.3,0.2L5,38.5v-28H29.3z"/>
<path d="M16.6,26.6c1.7,0,3.1-1.4,3.1-3.1s-1.4-3.1-3.1-3.1s-3.1,1.4-3.1,3.1S14.9,26.6,16.6,26.6z M16.6,21.4
	c1.1,0,2.1,0.9,2.1,2.1s-0.9,2.1-2.1,2.1s-2.1-0.9-2.1-2.1S15.5,21.4,16.6,21.4z M34.7,40.6c9.2,0,17.2,0,26.3,0v-31H34.7
	C34.7,26.9,34.7,1.1,34.7,40.6z M36.1,39.6L43.4,29l4.1,3.5l-1.5,2c-0.2,0.2-0.1,0.5,0.1,0.7c0.2,0.2,0.5,0.1,0.7-0.1l1.9-2.5
	l5.3-6.9l6.1,4.5v9.4L36.1,39.6L36.1,39.6z M60,10.5V29l-5.9-4.3c-0.2-0.2-0.5-0.1-0.7,0.1l-5.3,6.9l-4.5-3.8
	c-0.1-0.1-0.2-0.1-0.4-0.1c-0.1,0-0.3,0.1-0.3,0.2l-7.3,10.6V10.5H60z"/>
<path d="M47.3,26.6c1.7,0,3.1-1.4,3.1-3.1s-1.4-3.1-3.1-3.1c-1.7,0-3.1,1.4-3.1,3.1S45.6,26.6,47.3,26.6z M47.3,21.4
	c1.1,0,2.1,0.9,2.1,2.1s-0.9,2.1-2.1,2.1c-1.1,0-2.1-0.9-2.1-2.1S46.1,21.4,47.3,21.4z"/>
</svg>
