<?xml version="1.0" encoding="utf-8"?>
<!-- Generator: Adobe Illustrator 26.3.1, SVG Export Plug-In . SVG Version: 6.00 Build 0)  -->
<svg version="1.1" id="Слой_1" xmlns="http://www.w3.org/2000/svg" xmlns:xlink="http://www.w3.org/1999/xlink" x="0px" y="0px"
	 viewBox="0 0 64.1 54.9" style="enable-background:new 0 0 64.1 54.9;" xml:space="preserve"
	 fill='#45a29e'
	 preserveAspectRatio="none">

<path class="st0" d="M14.5,14h-7c-0.4,0-0.7-0.3-0.6-0.7c0.3-2,2.1-3.5,4.1-3.5c2.1,0,3.8,1.5,4.1,3.5C15.2,13.7,14.9,14,14.5,14z"
	/>
<path d="M14.5,31.4h-7c-0.4,0-0.7-0.3-0.6-0.7c0.3-2,2.1-3.5,4.1-3.5c2.1,0,3.8,1.5,4.1,3.5C15.2,31,14.9,31.4,14.5,31.4z"/>
<path d="M59.6,53.8H6.8c0,0,0.3-0.7,2.7-3.2s4.3-1.5,7.1-0.7s2.5-3.9,5.3-7.3c2.7-3.5,5.1,1.1,5.1,1.1s0.9,2.6,2,3.3
	c1.2,0.7,1.9-0.3,3.4-2.6c2.7-4.2,4.1,3.5,5.9,4.6c1.5,0.9,3.3-2.1,4-3.4c0.3-0.6,0.8-1.2,1.4-1.6c2.8-1.8,4.4,3.8,5.1,4.9
	c0.8,1.3,2.3,1.4,5.5,1.4C57.6,50.1,59.6,53.8,59.6,53.8z"/>
<rect x="20.3" y="4.2" width="16.2" height="1"/>
<rect x="20.3" y="8.8" width="12.1" height="1"/>
<rect x="20.3" y="13.4" width="12.1" height="1"/>
<rect x="20.3" y="21.6" width="16.2" height="1"/>
<rect x="20.3" y="26.2" width="12.1" height="1"/>
<rect x="20.3" y="30.8" width="12.1" height="1"/>
<path d="M60.1,2H39v13.1h21.1V2L60.1,2z M48.6,8.6L40,13.8V3.4L48.6,8.6z M41.3,3h16.5l-8.2,5L41.3,3z M49.5,9.1l8.2,5H41.3
	L49.5,9.1z M50.5,8.6l8.6-5.2v10.3L50.5,8.6z M60.1,21.1H39V34h21.1V21.1L60.1,21.1z M48.5,27.7l-8.5,5v-9.9L48.5,27.7z M41,22.1
	h17.1l-8.6,5L41,22.1z M49.5,28.2l8.2,4.8H41.4L49.5,28.2z M50.5,27.7l8.5-5v9.9L50.5,27.7z"/>
<path d="M1,54.9V0H0v54.9C0.4,54.9,0.8,54.9,1,54.9z"/>
<path d="M64.1,0c-0.3,0-0.7,0-1,0v54.9h1L64.1,0L64.1,0z"/>
<path d="M18,2H4v14.6h14V2z M17,15.6H5V3h12V15.6z"/>
<path d="M11,8.8c1.3,0,2.3-1,2.3-2.3s-1-2.3-2.3-2.3s-2.3,1-2.3,2.3C8.7,7.7,9.7,8.8,11,8.8z M11,5.1c0.7,0,1.3,0.6,1.3,1.3
	S11.7,7.7,11,7.7S9.7,7.1,9.7,6.4S10.3,5.1,11,5.1z M7.5,14.5h7c0.3,0,0.7-0.2,0.9-0.4c0.2-0.3,0.3-0.6,0.2-0.9
	c-0.4-2.3-2.3-3.9-4.6-3.9s-4.2,1.6-4.6,3.9c-0.1,0.3,0,0.7,0.2,0.9C6.8,14.4,7.2,14.5,7.5,14.5z M11,10.3c1.8,0,3.3,1.3,3.6,3.1
	l-0.1,0.1h-7c0,0-0.1,0-0.1-0.1C7.7,11.6,9.2,10.3,11,10.3z M18,19.4H4V34h14V19.4z M17,33H5V20.4h12V33z"/>
<path d="M11,26.2c1.3,0,2.3-1,2.3-2.3s-1-2.3-2.3-2.3s-2.3,1-2.3,2.3C8.7,25.1,9.7,26.2,11,26.2z M11,22.5c0.7,0,1.3,0.6,1.3,1.3
	c0,0.7-0.6,1.3-1.3,1.3s-1.3-0.6-1.3-1.3S10.3,22.5,11,22.5z M7.5,31.9h7c0.3,0,0.7-0.2,0.9-0.4c0.2-0.3,0.3-0.6,0.2-0.9
	c-0.4-2.2-2.3-3.9-4.6-3.9s-4.2,1.6-4.6,3.9c-0.1,0.3,0,0.7,0.2,0.9C6.8,31.7,7.2,31.9,7.5,31.9z M11,27.7c1.8,0,3.3,1.3,3.6,3.1
	l-0.1,0.1h-7c0,0-0.1,0-0.1-0.1C7.7,29,9.2,27.7,11,27.7z M59.3,53.3h0.8V36.7H4v16.6C10.9,53.3,52.4,53.3,59.3,53.3z M6.6,52.3
	c3.8-4.8,4.7-4.1,8.7-2.9c3.4,1,3.1-4.1,5.8-7.5c0.6-0.7,1.2-1.1,1.8-1.1c1.2,0,2.2,1.5,2.5,2c0.5,1.5,1.6,3.8,3.2,3.8
	c1.1,0,1.8-1.1,3.1-3c2.5-4,3.1,5,6.1,5c3.9,0,4.6-11.2,8.9-1.7c2.5,5.5,6.8,0,10.8,5.4C57.5,52.3,6.6,52.3,6.6,52.3z M5,37.7h54.1
	v14.6h-0.3c-2.4-3.8-5.4-3.5-5.5-3.6h-0.6c-4.2,0-4.2-0.6-5-2.2c-0.8-1.8-2-4.4-4-4.4c-1.2,0-2.3,1.1-2.9,2.2
	c-1.3,2.3-2.5,3.7-3.3,3.2c-1.4-0.9-3.5-9.4-6.6-4.4c-1.5,2.4-2,2.8-2.7,2.4c-0.8-0.5-1.6-2.3-1.8-3.1c-1.4-2.7-3.9-3.7-5.9-1.1
	c-2.7,3.4-2.5,7.8-4.7,7.2c-3.2-0.9-5.1-1.8-7.6,0.8c-1.7,1.8-2.3,2.6-2.6,3.1H5V37.7z"/>
</svg>
