<?xml version="1.0" encoding="utf-8"?>
<!-- Generator: Adobe Illustrator 26.3.1, SVG Export Plug-In . SVG Version: 6.00 Build 0)  -->
<svg version="1.1" id="Слой_1" xmlns="http://www.w3.org/2000/svg" xmlns:xlink="http://www.w3.org/1999/xlink" x="0px" y="0px"
	 viewBox="0 0 67 67" style="enable-background:new 0 0 67 67;" xml:space="preserve" fill='#45a29e'>
<style type="text/css">
	
</style>
<path class="st0" d="M16.3,22.7h-7c-0.4,0-0.7-0.3-0.6-0.7c0.3-2,2.1-3.5,4.1-3.5c2.1,0,3.8,1.5,4.1,3.5
	C17,22.4,16.7,22.7,16.3,22.7z"/>
<path d="M16.3,40.1h-7c-0.4,0-0.7-0.3-0.6-0.7c0.3-2,2.1-3.5,4.1-3.5c2.1,0,3.8,1.5,4.1,3.5C17,39.7,16.7,40.1,16.3,40.1z"/>
<path d="M61.4,62.5H8.6c0,0,0.3-0.7,2.7-3.2c2.4-2.5,4.3-1.5,7.1-0.7c2.8,0.8,2.5-3.9,5.3-7.3c2.7-3.5,5.1,1.1,5.1,1.1
	s0.9,2.6,2,3.3c1.2,0.7,1.9-0.3,3.4-2.6c2.7-4.2,4.1,3.5,5.9,4.6c1.5,0.9,3.3-2.1,4-3.4c0.3-0.6,0.8-1.2,1.4-1.6
	c2.8-1.8,4.4,3.8,5.1,4.9c0.8,1.3,2.3,1.4,5.5,1.4C59.4,58.8,61.4,62.5,61.4,62.5z"/>
<rect x="22.1" y="12.9" width="16.2" height="1"/>
<rect x="22.1" y="17.5" width="12.1" height="1"/>
<rect x="22.1" y="22.1" width="12.1" height="1"/>
<rect x="22.1" y="30.3" width="16.2" height="1"/>
<rect x="22.1" y="34.9" width="12.1" height="1"/>
<rect x="22.1" y="39.5" width="12.1" height="1"/>
<path d="M61.9,10.7H40.8v13.1h21.1L61.9,10.7L61.9,10.7z M50.4,17.3l-8.6,5.2V12.1L50.4,17.3z M43.1,11.7h16.5l-8.2,5L43.1,11.7z
	 M51.3,17.8l8.2,5H43.1L51.3,17.8z M52.3,17.3l8.6-5.2v10.3L52.3,17.3z M61.9,29.8H40.8v12.9h21.1L61.9,29.8L61.9,29.8z M50.3,36.4
	l-8.5,5v-9.9L50.3,36.4z M42.8,30.8h17.1l-8.6,5L42.8,30.8z M51.3,36.9l8.2,4.8H43.2L51.3,36.9z M52.3,36.4l8.5-5v9.9L52.3,36.4z"/>
<path d="M2.8,8.7c-0.4,0-0.7,0-1,0v54.8c0,0.1,0,0.2,0,0.3c0.3,0,0.7,0,1,0c0-0.1,0-0.2,0-0.3V8.7z"/>
<path d="M65.1,8.6c-0.1,0-0.1,0-0.2,0v54.9c0,0,0,0.1,0,0.1c0.3,0,0.7,0,1,0c0,0,0-0.1,0-0.1V8.6C65.6,8.6,65.2,8.6,65.1,8.6z"/>
<path d="M19.8,10.7h-14v14.6h14V10.7z M18.8,24.3h-12V11.7h12V24.3z"/>
<path d="M12.8,17.5c1.3,0,2.3-1,2.3-2.3c0-1.3-1-2.3-2.3-2.3c-1.3,0-2.3,1-2.3,2.3C10.5,16.4,11.5,17.5,12.8,17.5z M12.8,13.8
	c0.7,0,1.3,0.6,1.3,1.3s-0.6,1.3-1.3,1.3c-0.7,0-1.3-0.6-1.3-1.3S12.1,13.8,12.8,13.8z M9.3,23.2h7c0.3,0,0.7-0.2,0.9-0.4
	c0.2-0.3,0.3-0.6,0.2-0.9C17,19.6,15.1,18,12.8,18c-2.3,0-4.2,1.6-4.6,3.9c-0.1,0.3,0,0.7,0.2,0.9C8.6,23.1,9,23.2,9.3,23.2z
	 M12.8,19c1.8,0,3.3,1.3,3.6,3.1c0,0-0.1,0.1-0.1,0.1h-7c0,0-0.1,0-0.1-0.1C9.5,20.3,11,19,12.8,19z M19.8,28.1h-14v14.6h14V28.1z
	 M18.8,41.7h-12V29.1h12V41.7z"/>
<path d="M12.8,34.9c1.3,0,2.3-1,2.3-2.3c0-1.3-1-2.3-2.3-2.3c-1.3,0-2.3,1-2.3,2.3C10.5,33.8,11.5,34.9,12.8,34.9z M12.8,31.2
	c0.7,0,1.3,0.6,1.3,1.3c0,0.7-0.6,1.3-1.3,1.3c-0.7,0-1.3-0.6-1.3-1.3C11.5,31.8,12.1,31.2,12.8,31.2z M9.3,40.6h7
	c0.3,0,0.7-0.2,0.9-0.4c0.2-0.3,0.3-0.6,0.2-0.9c-0.4-2.2-2.3-3.9-4.6-3.9c-2.3,0-4.2,1.6-4.6,3.9c-0.1,0.3,0,0.7,0.2,0.9
	C8.6,40.4,9,40.6,9.3,40.6z M12.8,36.4c1.8,0,3.3,1.3,3.6,3.1c0,0-0.1,0.1-0.1,0.1h-7c0,0-0.1,0-0.1-0.1C9.5,37.7,11,36.4,12.8,36.4
	z M61.1,62h0.8V45.4H5.8V62C12.7,62,54.2,62,61.1,62z M8.4,61c3.8-4.8,4.7-4.1,8.7-2.9c3.4,1,3.1-4.1,5.8-7.5
	c0.6-0.7,1.2-1.1,1.8-1.1c1.2,0,2.2,1.5,2.5,2c0.5,1.5,1.6,3.8,3.2,3.8c1.1,0,1.8-1.1,3.1-3c2.5-4,3.1,5,6.1,5
	c3.9,0,4.6-11.2,8.9-1.7c2.5,5.5,6.8,0,10.8,5.4C59.3,61,8.4,61,8.4,61z M6.8,46.4h54.1V61h-0.3c-2.4-3.8-5.4-3.5-5.5-3.6l-0.6,0
	c-4.2,0-4.2-0.6-5-2.2c-0.8-1.8-2-4.4-4-4.4c-1.2,0-2.3,1.1-2.9,2.2c-1.3,2.3-2.5,3.7-3.3,3.2c-1.4-0.9-3.5-9.4-6.6-4.4
	c-1.5,2.4-2,2.8-2.7,2.4c-0.8-0.5-1.6-2.3-1.8-3.1c-1.4-2.7-3.9-3.7-5.9-1.1c-2.7,3.4-2.5,7.8-4.7,7.2c-3.2-0.9-5.1-1.8-7.6,0.8
	c-1.7,1.8-2.3,2.6-2.6,3.1H6.8V46.4z"/>
</svg>
