<?xml version="1.0" encoding="utf-8"?>
<!-- Generator: Adobe Illustrator 26.3.1, SVG Export Plug-In . SVG Version: 6.00 Build 0)  -->
<svg version="1.1" id="Слой_1" xmlns="http://www.w3.org/2000/svg" xmlns:xlink="http://www.w3.org/1999/xlink" x="0px" y="0px"
	 viewBox="0 0 58.8 57.3" style="enable-background:new 0 0 58.8 57.3;" xml:space="preserve"
	 fill='#45a29e'>
<polygon points="35.2,29.6 12.1,29.6 23.6,15.3 "/>
<polygon points="23.6,29.6 4.5,29.6 14,18.5 "/>
<rect x="4.5" y="53" width="49.8" height="1"/>
<rect x="4.5" y="50.2" width="49.8" height="1"/>
<path d="M19,17.6c0,0.9-0.7,1.6-1.6,1.6s-1.6-0.7-1.6-1.6c0-0.9,0.7-1.6,1.6-1.6C18.3,16,19,16.7,19,17.6C19,17.6,19,17.6,19,17.6z"
	/>
<rect x="14" y="34.2" width="13.1" height="1"/>
<rect x="14" y="37.6" width="10.8" height="1"/>
<rect x="14" y="42.6" width="13.1" height="1"/>
<rect x="14" y="46" width="10.8" height="1"/>
<path d="M35.6,30.2v-18H4v18H35.6z M5,13.2h29.6v16H5V13.2z M54.8,1.4H4v7.3h50.8V1.4z M53.8,7.8H5V2.4h48.8V7.8z"/>
<path d="M58.7,0c-0.3,0-0.6,0-0.9,0v56.3H1V0H0v57.3h58.8V0C58.8,0,58.8,0,58.7,0z"/>
<rect x="38.7" y="12.4" width="15.6" height="1"/>
<rect x="38.7" y="17.9" width="15.6" height="1"/>
<rect x="38.7" y="23.5" width="15.6" height="1"/>
<rect x="38.7" y="29" width="15.6" height="1"/>
<path d="M4,39.6h7.2v-6.4H4V39.6z M5,34.2h5.2v4.4H5V34.2z M4,48h7.2v-6.4H4V48z M5,42.6h5.2V47H5V42.6z M31.2,39.6h7.2v-6.4h-7.2
	L31.2,39.6z M32.2,34.2h5.2v4.4h-5.2V34.2z M31.2,48h7.2v-6.4h-7.2V48z M32.2,42.6h5.2V47h-5.2V42.6z"/>
<rect x="41.2" y="34.2" width="13.1" height="1"/>
<rect x="41.2" y="37.6" width="10.8" height="1"/>
<rect x="41.2" y="42.6" width="13.1" height="1"/>
<rect x="41.2" y="46" width="10.8" height="1"/>
</svg>
