<svg id="Слой_1" data-name="Слой 1" xmlns="http://www.w3.org/2000/svg" viewBox="0 0 58.83 57.45" fill='#45a29e'><polygon points="35.2 29.71 12.06 29.71 23.63 15.47 35.2 29.71"/><polygon points="23.57 29.71 4.5 29.71 14.03 18.64 23.57 29.71"/><rect x="4.5" y="53.15" width="49.83" height="1"/><rect x="4.5" y="50.33" width="49.83" height="1"/><path d="M19.05,17.7a1.56,1.56,0,1,1-1.57-1.56A1.56,1.56,0,0,1,19.05,17.7Z"/><rect x="13.98" y="34.38" width="13.11" height="1"/><rect x="13.98" y="37.74" width="10.82" height="1"/><rect x="13.98" y="42.76" width="13.11" height="1"/><rect x="13.98" y="46.12" width="10.82" height="1"/><path d="M35.62,30.34v-18H4v18ZM5,13.33H34.62v16H5ZM54.83,1.55H4V8.9H54.83Zm-1,6.35H5V2.55H53.83Z"/><path d="M57.83,0V56.45H1V.18H0V57.45H58.83V0Z"/><rect x="38.71" y="12.58" width="15.62" height="1"/><rect x="38.71" y="18.08" width="15.62" height="1"/><rect x="38.71" y="23.59" width="15.62" height="1"/><rect x="38.71" y="29.09" width="15.62" height="1"/><path d="M4,39.78h7.2V33.35H4Zm1-5.43h5.2v4.43H5ZM4,48.16h7.2V41.73H4Zm1-5.43h5.2v4.43H5Zm26.24-2.95h7.2V33.35h-7.2Zm1-5.43h5.2v4.43h-5.2Zm-1,13.81h7.2V41.73h-7.2Zm1-5.43h5.2v4.43h-5.2Z"/><rect x="41.22" y="34.38" width="13.11" height="1"/><rect x="41.22" y="37.74" width="10.82" height="1"/><rect x="41.22" y="42.76" width="13.11" height="1"/><rect x="41.22" y="46.12" width="10.82" height="1"/></svg>