<svg id="Слой_1" data-name="Слой 1" xmlns="http://www.w3.org/2000/svg" viewBox="0 0 32 29" fill='#45a29e'><path d="M29.5,0H2.5A2.5,2.5,0,0,0,0,2.5v18A2.5,2.5,0,0,0,2.5,23H13a5.5,5.5,0,0,1-2.17,3.9L9.2,28.1a.5.5,0,0,0-.17.56A.5.5,0,0,0,9.5,29h13a.5.5,0,0,0,.47-.34.5.5,0,0,0-.17-.56l-1.6-1.2A5.5,5.5,0,0,1,19,23H29.5A2.5,2.5,0,0,0,32,20.5V2.5A2.5,2.5,0,0,0,29.5,0ZM20.6,27.7l.4.3H11l.4-.3A6.57,6.57,0,0,0,14,23h4A6.57,6.57,0,0,0,20.6,27.7ZM31,20.5A1.5,1.5,0,0,1,29.5,22H2.5A1.5,1.5,0,0,1,1,20.5V19H31ZM31,18H17l-2.37,0H1V2.5A1.5,1.5,0,0,1,2.5,1h27A1.5,1.5,0,0,1,31,2.5Z"/></svg>