<svg width="102" height="100" viewBox="0 0 102 100" fill="none" xmlns="http://www.w3.org/2000/svg">
<path d="M70.4286 21.252C70.4286 21.7463 70.2861 22.2296 70.0193 22.6406C69.7524 23.0516 69.3731 23.372 68.9294 23.5611C68.4856 23.7503 67.9973 23.7998 67.5262 23.7034C67.0551 23.6069 66.6224 23.3689 66.2827 23.0193C65.9431 22.6698 65.7118 22.2244 65.6181 21.7396C65.5244 21.2548 65.5725 20.7522 65.7563 20.2955C65.9401 19.8388 66.2514 19.4484 66.6508 19.1738C67.0501 18.8992 67.5197 18.7526 68 18.7526C68.6441 18.7526 69.2618 19.0159 69.7173 19.4846C70.1727 19.9534 70.4286 20.5891 70.4286 21.252ZM34 81.2377C34.4803 81.2377 34.9499 81.0911 35.3492 80.8165C35.7486 80.5418 36.0599 80.1515 36.2437 79.6948C36.4275 79.2381 36.4756 78.7355 36.3819 78.2507C36.2882 77.7658 36.0569 77.3205 35.7173 76.9709C35.3776 76.6214 34.9449 76.3834 34.4738 76.2869C34.0027 76.1905 33.5144 76.24 33.0706 76.4291C32.6269 76.6183 32.2476 76.9387 31.9807 77.3497C31.7139 77.7607 31.5714 78.244 31.5714 78.7383C31.5714 79.4012 31.8273 80.0369 32.2827 80.5056C32.7382 80.9744 33.3559 81.2377 34 81.2377ZM43.9693 56.1062C44.1707 56.5221 44.4808 56.872 44.8648 57.1166C45.2487 57.3611 45.6913 57.4907 46.1429 57.4907C46.5944 57.4907 47.037 57.3611 47.421 57.1166C47.8049 56.872 48.115 56.5221 48.3164 56.1062L51 50.5825L53.6836 56.1062C53.885 56.5221 54.1951 56.872 54.579 57.1166C54.963 57.3611 55.4056 57.4907 55.8571 57.4907C56.3087 57.4907 56.7513 57.3611 57.1352 57.1166C57.5192 56.872 57.8293 56.5221 58.0307 56.1062L62.8879 46.1086C63.1513 45.5183 63.1811 44.8457 62.971 44.2332C62.7609 43.6207 62.3273 43.1165 61.7622 42.8273C61.1971 42.5381 60.5447 42.4867 59.9434 42.684C59.3421 42.8812 58.839 43.3117 58.5407 43.8841L55.8571 49.4078L53.1736 43.8841C52.9722 43.4682 52.6621 43.1183 52.2781 42.8737C51.8941 42.6292 51.4515 42.4996 51 42.4996C50.5485 42.4996 50.1059 42.6292 49.7219 42.8737C49.3379 43.1183 49.0278 43.4682 48.8264 43.8841L46.1429 49.4078L43.4593 43.8841C43.3235 43.5799 43.1298 43.3069 42.8896 43.0813C42.6494 42.8557 42.3676 42.682 42.0609 42.5705C41.7542 42.4591 41.4289 42.4122 41.1043 42.4326C40.7797 42.453 40.4624 42.5403 40.1712 42.6893C39.8799 42.8383 39.6208 43.046 39.409 43.3001C39.1973 43.5541 39.0373 43.8494 38.9385 44.1683C38.8398 44.4872 38.8042 44.8232 38.8341 45.1566C38.8639 45.4899 38.9584 45.8136 39.1121 46.1086L43.9693 56.1062ZM70.6836 56.1062C70.885 56.5221 71.1951 56.872 71.579 57.1166C71.963 57.3611 72.4056 57.4907 72.8571 57.4907C73.3087 57.4907 73.7513 57.3611 74.1352 57.1166C74.5192 56.872 74.8293 56.5221 75.0307 56.1062L77.7143 50.5825L80.3979 56.1062C80.5993 56.5221 80.9094 56.872 81.2933 57.1166C81.6773 57.3611 82.1199 57.4907 82.5714 57.4907C83.023 57.4907 83.4656 57.3611 83.8495 57.1166C84.2335 56.872 84.5436 56.5221 84.745 56.1062L89.6021 46.1086C89.8656 45.5183 89.8954 44.8457 89.6853 44.2332C89.4752 43.6207 89.0416 43.1165 88.4765 42.8273C87.9113 42.5381 87.259 42.4867 86.6577 42.684C86.0564 42.8812 85.5533 43.3117 85.255 43.8841L82.5714 49.4078L79.8879 43.8841C79.6864 43.4682 79.3763 43.1183 78.9924 42.8737C78.6084 42.6292 78.1658 42.4996 77.7143 42.4996C77.2627 42.4996 76.8201 42.6292 76.4362 42.8737C76.0522 43.1183 75.7421 43.4682 75.5407 43.8841L72.8571 49.4078L70.1736 43.8841C69.8753 43.3117 69.3722 42.8812 68.7709 42.684C68.1696 42.4867 67.5172 42.5381 66.9521 42.8273C66.387 43.1165 65.9534 43.6207 65.7433 44.2332C65.5332 44.8457 65.563 45.5183 65.8264 46.1086L70.6836 56.1062ZM17.255 56.1062C17.4564 56.5221 17.7665 56.872 18.1505 57.1166C18.5344 57.3611 18.977 57.4907 19.4286 57.4907C19.8801 57.4907 20.3227 57.3611 20.7067 57.1166C21.0906 56.872 21.4007 56.5221 21.6021 56.1062L24.2857 50.5825L26.9693 56.1062C27.1707 56.5221 27.4808 56.872 27.8648 57.1166C28.2487 57.3611 28.6913 57.4907 29.1429 57.4907C29.5944 57.4907 30.037 57.3611 30.421 57.1166C30.8049 56.872 31.115 56.5221 31.3164 56.1062L36.1736 46.1086C36.3273 45.8136 36.4218 45.4899 36.4517 45.1566C36.4815 44.8232 36.446 44.4872 36.3472 44.1683C36.2484 43.8494 36.0884 43.5541 35.8767 43.3001C35.6649 43.046 35.4058 42.8383 35.1146 42.6893C34.8233 42.5403 34.506 42.453 34.1814 42.4326C33.8568 42.4122 33.5315 42.4591 33.2248 42.5705C32.9181 42.682 32.6363 42.8557 32.3961 43.0813C32.1559 43.3069 31.9622 43.5799 31.8264 43.8841L29.1429 49.4078L26.4593 43.8841C26.2579 43.4682 25.9478 43.1183 25.5638 42.8737C25.1799 42.6292 24.7373 42.4996 24.2857 42.4996C23.8342 42.4996 23.3916 42.6292 23.0076 42.8737C22.6237 43.1183 22.3136 43.4682 22.1121 43.8841L19.4286 49.4078L16.745 43.8841C16.6093 43.5799 16.4155 43.3069 16.1753 43.0813C15.9351 42.8557 15.6533 42.682 15.3466 42.5705C15.04 42.4591 14.7147 42.4122 14.39 42.4326C14.0654 42.453 13.7481 42.5403 13.4569 42.6893C13.1657 42.8383 12.9065 43.046 12.6948 43.3001C12.483 43.5541 12.323 43.8494 12.2242 44.1683C12.1255 44.4872 12.0899 44.8232 12.1198 45.1566C12.1496 45.4899 12.2442 45.8136 12.3979 46.1086L17.255 56.1062ZM102 34.9987V64.9916C102 65.6544 101.744 66.2902 101.289 66.7589C100.833 67.2276 100.216 67.491 99.5714 67.491H96.5114C93.0497 77.0369 86.8361 85.2661 78.7032 91.0762C70.5703 96.8864 60.9064 100 51.0061 100C41.1058 100 31.4419 96.8864 23.309 91.0762C15.176 85.2661 8.9625 77.0369 5.50071 67.491H2.42857C1.78447 67.491 1.16676 67.2276 0.711313 66.7589C0.255867 66.2902 0 65.6544 0 64.9916V34.9987C0 34.3358 0.255867 33.7001 0.711313 33.2314C1.16676 32.7626 1.78447 32.4993 2.42857 32.4993H5.48857C8.21105 24.9968 12.6452 18.2774 18.4176 12.9067C24.1901 7.53598 31.1319 3.67128 38.6586 1.63797C46.1852 -0.395344 54.0764 -0.537744 61.6677 1.22276C69.259 2.98326 76.3281 6.59512 82.28 11.7542L82.4014 11.8792C88.7427 17.3931 93.5979 24.4944 96.4993 32.4993H99.5714C100.216 32.4993 100.833 32.7626 101.289 33.2314C101.744 33.7001 102 34.3358 102 34.9987ZM80.7379 17.028C79.1614 18.2895 77.5109 19.4498 75.7957 20.5022C75.4279 20.7268 75.0091 20.8475 74.5814 20.8521C74.0514 20.8465 73.5377 20.6627 73.1188 20.3285C72.6998 19.9944 72.3985 19.5284 72.2609 19.0017C72.1233 18.4749 72.1569 17.9162 72.3567 17.4109C72.5564 16.9057 72.9113 16.4815 73.3671 16.2032C74.5814 15.4534 75.7957 14.6286 76.9371 13.7038C72.8997 10.643 68.3817 8.31817 63.58 6.83042C65.1861 8.80426 66.5824 10.9493 67.745 13.2289C67.9216 13.5194 68.0383 13.8441 68.0878 14.183C68.1374 14.5218 68.1187 14.8675 68.0329 15.1986C67.9471 15.5297 67.7961 15.8391 67.5893 16.1076C67.3824 16.3761 67.1241 16.598 66.8304 16.7594C66.5367 16.9209 66.2139 17.0184 65.8821 17.046C65.5502 17.0737 65.2163 17.0308 64.9013 16.92C64.5862 16.8092 64.2966 16.633 64.0505 16.4022C63.8044 16.1714 63.6071 15.8909 63.4707 15.5783C60.4593 10.0047 56.9986 6.5055 53.4286 5.39326V22.4267C55.8808 22.2883 58.3177 21.9413 60.7143 21.3895C61.3245 21.2835 61.9509 21.4212 62.4658 21.7746C62.9806 22.1279 63.345 22.6702 63.4845 23.2906C63.6239 23.9111 63.528 24.563 63.2163 25.1131C62.9046 25.6632 62.4005 26.0702 61.8071 26.2508C59.0525 26.8887 56.249 27.2776 53.4286 27.413V32.4993H68.85C68.6193 31.3246 68.3886 30.1624 68.1214 29.0376C68.0465 28.7176 68.0335 28.3855 68.0833 28.0604C68.133 27.7352 68.2445 27.4233 68.4114 27.1424C68.5783 26.8616 68.7973 26.6174 69.0559 26.4236C69.3145 26.2299 69.6076 26.0905 69.9186 26.0134C70.2295 25.9362 70.5522 25.9229 70.8681 25.9741C71.1841 26.0253 71.4872 26.14 71.7601 26.3118C72.0329 26.4835 72.2703 26.7089 72.4585 26.9751C72.6467 27.2412 72.7822 27.5429 72.8571 27.8629C73.2093 29.3626 73.5128 30.9247 73.7921 32.4993H91.2779C88.8712 26.6308 85.2782 21.3568 80.7379 17.028ZM36.6714 20.0023C40.5101 21.3727 44.5149 22.1886 48.5714 22.4267V5.39326C44.03 6.81792 39.78 12.1417 36.6714 20.0023ZM38.4443 6.94289C33.6675 8.41715 29.1707 10.7206 25.1479 13.7538C27.3473 15.4131 29.693 16.8566 32.1543 18.0652C33.6679 14.0396 35.7908 10.2858 38.4443 6.94289ZM35.0443 24.7137C34.2732 27.2708 33.6408 29.87 33.15 32.4993H48.5714V27.5005C43.9573 27.2321 39.4032 26.2939 35.0443 24.7137ZM10.7464 32.4993H28.2079C28.7769 29.2291 29.5434 25.9987 30.5029 22.8266C27.2314 21.2613 24.1401 19.3248 21.2864 17.053C16.7466 21.3725 13.1535 26.6383 10.7464 32.4993ZM21.25 82.9623C22.8307 81.7008 24.4852 80.5406 26.2043 79.4881C26.4791 79.2824 26.7928 79.1384 27.1251 79.0653C27.4574 78.9922 27.8009 78.9917 28.1335 79.0638C28.466 79.1359 28.7801 79.279 29.0555 79.4839C29.3309 79.6888 29.5614 79.9509 29.7322 80.2532C29.903 80.5556 30.0102 80.8914 30.047 81.2391C30.0838 81.5868 30.0492 81.9385 29.9456 82.2716C29.842 82.6047 29.6716 82.9117 29.4455 83.1727C29.2194 83.4337 28.9425 83.6431 28.6329 83.7871C27.4186 84.5369 26.2043 85.3617 25.0629 86.2865C29.1003 89.3472 33.6183 91.6721 38.42 93.1599C36.8111 91.1882 35.4146 89.0428 34.255 86.7614C34.0784 86.4709 33.9617 86.1462 33.9122 85.8073C33.8626 85.4685 33.8813 85.1228 33.9671 84.7917C34.0529 84.4606 34.2039 84.1511 34.4107 83.8826C34.6176 83.6141 34.8759 83.3923 35.1696 83.2309C35.4633 83.0694 35.7861 82.9719 36.1179 82.9442C36.4498 82.9166 36.7837 82.9595 37.0987 83.0703C37.4138 83.1811 37.7034 83.3573 37.9495 83.5881C38.1956 83.8189 38.3929 84.0993 38.5293 84.4119C41.5407 89.9856 45.0014 93.4848 48.5714 94.597V77.5636C46.1192 77.702 43.6823 78.0489 41.2857 78.6008C40.6755 78.7068 40.0491 78.5691 39.5342 78.2157C39.0194 77.8624 38.655 77.3201 38.5155 76.6997C38.3761 76.0792 38.472 75.4273 38.7837 74.8772C39.0954 74.327 39.5995 73.9201 40.1929 73.7395C42.9475 73.1016 45.751 72.7127 48.5714 72.5773V67.491H33.15C33.3807 68.6657 33.6114 69.8279 33.8786 70.9526C33.9545 71.2727 33.9682 71.605 33.9188 71.9306C33.8695 72.2561 33.7581 72.5684 33.5911 72.8494C33.4241 73.1305 33.2047 73.3748 32.9456 73.5683C32.6866 73.7618 32.3929 73.9007 32.0814 73.9769C31.8916 73.996 31.7005 73.996 31.5107 73.9769C30.9727 73.9821 30.4483 73.8033 30.0197 73.4685C29.5911 73.1338 29.2827 72.662 29.1429 72.1274C28.7907 70.6277 28.4871 69.0656 28.2079 67.491H10.7221C13.1282 73.3567 16.7165 78.63 21.25 82.9623ZM65.3164 79.988C61.4819 78.6176 57.4811 77.8017 53.4286 77.5636V94.572C57.9579 93.1349 62.2079 87.8361 65.3164 79.988ZM63.5314 93.0599C68.3307 91.5777 72.8482 89.2615 76.8886 86.2115C74.6894 84.5483 72.3437 83.1006 69.8821 81.8875C68.3469 85.931 66.2039 89.7011 63.5314 93.0599ZM66.9557 75.2766C67.7169 72.7176 68.3452 70.1187 68.8379 67.491H53.4286V72.4898C58.0424 72.7607 62.5961 73.6988 66.9557 75.2766ZM91.2414 67.491H73.7921C73.2231 70.7611 72.4566 73.9916 71.4971 77.1637C74.7711 78.7242 77.8629 80.6611 80.7136 82.9373C85.2534 78.6177 88.8466 73.352 91.2536 67.491H91.2414ZM97.1429 37.4981H4.85714V62.4922H97.1429V37.4981Z" fill="#45A29E"/>
</svg>
