<svg width="110" height="100" viewBox="0 0 110 100" fill="none" xmlns="http://www.w3.org/2000/svg">
<path d="M101.406 0H8.59375C6.31455 0 4.12869 0.908247 2.51705 2.52494C0.90541 4.14163 0 6.33433 0 8.62068L0 70.6896C0 72.9759 0.90541 75.1686 2.51705 76.7853C4.12869 78.402 6.31455 79.3102 8.59375 79.3102H44.5844C44.3512 81.9513 43.5665 84.5137 42.2813 86.8306C40.9962 89.1476 39.2393 91.1673 37.125 92.7585L31.625 96.8964C31.3377 97.1159 31.1266 97.4206 31.0218 97.7672C30.9169 98.1138 30.9235 98.4848 31.0406 98.8274C31.1485 99.1711 31.3639 99.4708 31.6549 99.682C31.946 99.8931 32.2971 100.005 32.6563 99.9999H77.3438C77.7029 100.005 78.054 99.8931 78.3451 99.682C78.6361 99.4708 78.8515 99.1711 78.9594 98.8274C79.0765 98.4848 79.0831 98.1138 78.9783 97.7672C78.8734 97.4206 78.6623 97.1159 78.375 96.8964L72.875 92.7585C70.7607 91.1673 69.0038 89.1476 67.7187 86.8306C66.4335 84.5137 65.6489 81.9513 65.4156 79.3102H101.406C103.685 79.3102 105.871 78.402 107.483 76.7853C109.095 75.1686 110 72.9759 110 70.6896V8.62068C110 6.33433 109.095 4.14163 107.483 2.52494C105.871 0.908247 103.685 0 101.406 0ZM70.8125 95.5171L72.1875 96.5516H37.8125L39.1875 95.5171C41.7248 93.599 43.8274 91.1625 45.3562 88.3687C46.885 85.5749 47.8053 82.4873 48.0563 79.3102H61.9438C62.1947 82.4873 63.115 85.5749 64.6438 88.3687C66.1726 91.1625 68.2752 93.599 70.8125 95.5171ZM106.563 70.6896C106.563 72.0614 106.019 73.377 105.052 74.347C104.085 75.317 102.774 75.862 101.406 75.862H8.59375C7.22623 75.862 5.91472 75.317 4.94773 74.347C3.98075 73.377 3.4375 72.0614 3.4375 70.6896V65.5171H106.563V70.6896ZM13.75 62.0689V48.2758H37.8125V62.0689H13.75ZM51.5625 62.0689V48.2758H96.25V62.0689H51.5625ZM106.563 62.0689H99.6875V46.5517C99.6875 46.0944 99.5064 45.6558 99.1841 45.3325C98.8618 45.0092 98.4246 44.8275 97.9688 44.8275H49.8438C49.3879 44.8275 48.9507 45.0092 48.6284 45.3325C48.3061 45.6558 48.125 46.0944 48.125 46.5517V62.0689H41.25V46.5517C41.25 46.0944 41.0689 45.6558 40.7466 45.3325C40.4243 45.0092 39.9871 44.8275 39.5313 44.8275H12.0313C11.5754 44.8275 11.1382 45.0092 10.8159 45.3325C10.4936 45.6558 10.3125 46.0944 10.3125 46.5517V62.0689H3.4375V8.62068C3.4375 7.24887 3.98075 5.93325 4.94773 4.96323C5.91472 3.99322 7.22623 3.44827 8.59375 3.44827H101.406C102.774 3.44827 104.085 3.99322 105.052 4.96323C106.019 5.93325 106.563 7.24887 106.563 8.62068V62.0689ZM97.9688 10.3448H12.0313C11.5754 10.3448 11.1382 10.5265 10.8159 10.8498C10.4936 11.1731 10.3125 11.6117 10.3125 12.0689V36.2068C10.3125 36.6641 10.4936 37.1027 10.8159 37.426C11.1382 37.7493 11.5754 37.931 12.0313 37.931H97.9688C98.4246 37.931 98.8618 37.7493 99.1841 37.426C99.5064 37.1027 99.6875 36.6641 99.6875 36.2068V12.0689C99.6875 11.6117 99.5064 11.1731 99.1841 10.8498C98.8618 10.5265 98.4246 10.3448 97.9688 10.3448ZM85.4528 13.7931L55 22.3482L24.5403 13.7931H85.4528ZM13.75 14.3414L48.6234 24.1379L13.75 33.9344V14.3414ZM24.5438 34.4827L55 25.9275L85.4563 34.4827H24.5438ZM96.25 33.9344L61.3731 24.1379L96.25 14.3414V33.9344ZM87.6563 53.4482H60.1563C59.7004 53.4482 59.2632 53.6298 58.9409 53.9532C58.6186 54.2765 58.4375 54.7151 58.4375 55.1723C58.4375 55.6296 58.6186 56.0681 58.9409 56.3915C59.2632 56.7148 59.7004 56.8965 60.1563 56.8965H87.6563C88.1121 56.8965 88.5493 56.7148 88.8716 56.3915C89.1939 56.0681 89.375 55.6296 89.375 55.1723C89.375 54.7151 89.1939 54.2765 88.8716 53.9532C88.5493 53.6298 88.1121 53.4482 87.6563 53.4482ZM29.2188 53.4482H22.3438C21.8879 53.4482 21.4507 53.6298 21.1284 53.9532C20.8061 54.2765 20.625 54.7151 20.625 55.1723C20.625 55.6296 20.8061 56.0681 21.1284 56.3915C21.4507 56.7148 21.8879 56.8965 22.3438 56.8965H29.2188C29.6746 56.8965 30.1118 56.7148 30.4341 56.3915C30.7564 56.0681 30.9375 55.6296 30.9375 55.1723C30.9375 54.7151 30.7564 54.2765 30.4341 53.9532C30.1118 53.6298 29.6746 53.4482 29.2188 53.4482Z" fill="#45A29E"/>
</svg>
