<svg width="110" height="100" viewBox="0 0 110 100" fill="none" xmlns="http://www.w3.org/2000/svg">
<path d="M11.4584 10.4167C12.724 10.4167 13.7501 9.48393 13.7501 8.33333C13.7501 7.18274 12.724 6.25 11.4584 6.25C10.1927 6.25 9.16672 7.18274 9.16672 8.33333C9.16672 9.48393 10.1927 10.4167 11.4584 10.4167Z" fill="#45A29E"/>
<path d="M20.6249 10.4167C21.8906 10.4167 22.9166 9.48393 22.9166 8.33333C22.9166 7.18274 21.8906 6.25 20.6249 6.25C19.3593 6.25 18.3333 7.18274 18.3333 8.33333C18.3333 9.48393 19.3593 10.4167 20.6249 10.4167Z" fill="#45A29E"/>
<path d="M29.7917 10.4167C31.0573 10.4167 32.0833 9.48393 32.0833 8.33333C32.0833 7.18274 31.0573 6.25 29.7917 6.25C28.526 6.25 27.5 7.18274 27.5 8.33333C27.5 9.48393 28.526 10.4167 29.7917 10.4167Z" fill="#45A29E"/>
<path d="M107.708 72.9167H104.087C104.04 72.8373 104.001 72.7535 103.973 72.6667L106.54 70.3333C106.752 70.1387 106.92 69.9078 107.034 69.654C107.148 69.4001 107.206 69.1283 107.204 68.8542C107.196 68.3026 106.958 67.7742 106.54 67.375L100.833 62.2083V8.33333C100.833 6.1232 99.8676 4.00358 98.1485 2.44078C96.4294 0.877974 94.0978 0 91.6667 0L9.16667 0C6.73552 0 4.40394 0.877974 2.68485 2.44078C0.965771 4.00358 0 6.1232 0 8.33333L0 81.25C0 81.8025 0.241443 82.3324 0.671214 82.7231C1.10098 83.1138 1.68388 83.3333 2.29167 83.3333H64.1667C64.1667 83.8859 64.4081 84.4158 64.8379 84.8065C65.2677 85.1972 65.8505 85.4167 66.4583 85.4167H70.0792C70.127 85.496 70.1655 85.5799 70.1938 85.6667L67.6271 88C67.4147 88.1947 67.2467 88.4255 67.1326 88.6794C67.0186 88.9332 66.9608 89.205 66.9625 89.4792C66.9709 90.0308 67.2083 90.5591 67.6271 90.9583L74.1125 96.8542C74.3255 97.0494 74.579 97.2044 74.8583 97.3102C75.1375 97.416 75.4371 97.4704 75.7396 97.4704C76.0421 97.4704 76.3416 97.416 76.6209 97.3102C76.9002 97.2044 77.1536 97.0494 77.3667 96.8542L79.9333 94.5208L80.2083 94.625V97.9167C80.2083 98.4692 80.4498 98.9991 80.8795 99.3898C81.3093 99.7805 81.8922 100 82.5 100H91.6667C92.2745 100 92.8574 99.7805 93.2871 99.3898C93.7169 98.9991 93.9583 98.4692 93.9583 97.9167V94.625L94.2333 94.5208L96.8 96.8542C97.0141 97.0473 97.2681 97.2 97.5473 97.3037C97.8265 97.4074 98.1255 97.4599 98.4271 97.4583C99.0338 97.4507 99.615 97.2349 100.054 96.8542L106.54 90.9583C106.958 90.5591 107.196 90.0308 107.204 89.4792C107.206 89.205 107.148 88.9332 107.034 88.6794C106.92 88.4255 106.752 88.1947 106.54 88L103.973 85.6667C104.001 85.5799 104.04 85.496 104.087 85.4167H107.708C108.316 85.4167 108.899 85.1972 109.329 84.8065C109.759 84.4158 110 83.8859 110 83.3333V75C110 74.4475 109.759 73.9176 109.329 73.5269C108.899 73.1362 108.316 72.9167 107.708 72.9167ZM4.58333 8.33333C4.58333 7.22826 5.06622 6.16846 5.92576 5.38705C6.7853 4.60565 7.95109 4.16667 9.16667 4.16667H91.6667C92.8822 4.16667 94.048 4.60565 94.9076 5.38705C95.7671 6.16846 96.25 7.22826 96.25 8.33333V12.5H4.58333V8.33333ZM4.58333 79.1667V16.6667H96.25V62L94.2333 63.8125L93.9583 63.7083V60.4167C93.9583 59.8641 93.7169 59.3342 93.2871 58.9435C92.8574 58.5528 92.2745 58.3333 91.6667 58.3333H82.5C81.8922 58.3333 81.3093 58.5528 80.8795 58.9435C80.4498 59.3342 80.2083 59.8641 80.2083 60.4167V63.7083L79.9333 63.8125L77.3667 61.4792C77.1525 61.2861 76.8986 61.1333 76.6194 61.0296C76.3402 60.926 76.0412 60.8734 75.7396 60.875C75.1328 60.8827 74.5517 61.0985 74.1125 61.4792L67.6271 67.375C67.2083 67.7742 66.9709 68.3026 66.9625 68.8542C66.9608 69.1283 67.0186 69.4001 67.1326 69.654C67.2467 69.9078 67.4147 70.1387 67.6271 70.3333L70.1938 72.6667C70.1655 72.7535 70.127 72.8373 70.0792 72.9167H66.4583C65.8505 72.9167 65.2677 73.1362 64.8379 73.5269C64.4081 73.9176 64.1667 74.4475 64.1667 75V79.1667H4.58333ZM105.417 81.25H102.46C101.952 81.2302 101.451 81.3649 101.036 81.6327C100.621 81.9005 100.316 82.2863 100.169 82.7292C99.9036 83.5534 99.5425 84.3495 99.0917 85.1042C98.8853 85.4989 98.8207 85.9427 98.9071 86.3727C98.9935 86.8026 99.2264 87.197 99.5729 87.5L101.658 89.3958L98.5417 92.4167L96.25 90.5208C95.8991 90.201 95.4434 89.9935 94.9515 89.9297C94.4597 89.8658 93.9583 89.949 93.5229 90.1667C92.6928 90.5765 91.817 90.9048 90.9104 91.1458C90.4233 91.2796 89.9989 91.5569 89.7043 91.9341C89.4097 92.3113 89.2616 92.767 89.2833 93.2292V95.8333H84.7917V93.1458C84.8134 92.6836 84.6653 92.228 84.3707 91.8508C84.0761 91.4736 83.6517 91.1962 83.1646 91.0625C82.258 90.8214 81.3822 90.4932 80.5521 90.0833C80.1167 89.8656 79.6153 89.7824 79.1235 89.8463C78.6316 89.9102 78.1759 90.1177 77.825 90.4375L75.7396 92.3333L72.5083 89.5833L74.5938 87.6875C74.9455 87.3685 75.1738 86.9542 75.244 86.5071C75.3143 86.0599 75.2228 85.6041 74.9833 85.2083C74.5325 84.4537 74.1714 83.6575 73.9063 82.8333C73.7591 82.3905 73.4541 82.0047 73.0391 81.7369C72.6242 81.4691 72.123 81.3344 71.6146 81.3542H68.75V77.0833H71.7063C72.2147 77.1031 72.7159 76.9684 73.1308 76.7006C73.5457 76.4328 73.8508 76.047 73.9979 75.6042C74.2631 74.78 74.6242 73.9838 75.075 73.2292C75.2814 72.8344 75.346 72.3906 75.2596 71.9607C75.1732 71.5307 74.9403 71.1363 74.5938 70.8333L72.5083 68.9375L75.7396 66L77.825 67.8958C78.1759 68.2156 78.6316 68.4231 79.1235 68.487C79.6153 68.5509 80.1167 68.4677 80.5521 68.25C81.3822 67.8401 82.258 67.5119 83.1646 67.2708C83.6517 67.1371 84.0761 66.8598 84.3707 66.4825C84.6653 66.1053 84.8134 65.6497 84.7917 65.1875V62.5H89.375V65.1875C89.3533 65.6497 89.5014 66.1053 89.796 66.4825C90.0906 66.8598 90.5149 67.1371 91.0021 67.2708C91.9087 67.5119 92.7845 67.8401 93.6146 68.25C94.0488 68.4376 94.537 68.4963 95.0099 68.4178C95.4829 68.3393 95.9167 68.1275 96.25 67.8125L98.3354 65.9167L101.567 68.8542L99.4813 70.75C99.1295 71.069 98.9012 71.4833 98.831 71.9304C98.7607 72.3776 98.8522 72.8334 99.0917 73.2292C99.5425 73.9838 99.9036 74.78 100.169 75.6042C100.316 76.047 100.621 76.4328 101.036 76.7006C101.451 76.9684 101.952 77.1031 102.46 77.0833H105.417V81.25Z" fill="#45A29E"/>
<path d="M87.0833 70.8334C85.2703 70.8334 83.4981 71.3221 81.9906 72.2378C80.4832 73.1535 79.3083 74.455 78.6144 75.9777C77.9206 77.5004 77.7391 79.176 78.0928 80.7925C78.4465 82.409 79.3195 83.8938 80.6015 85.0593C81.8835 86.2247 83.5169 87.0184 85.295 87.3399C87.0732 87.6615 88.9163 87.4964 90.5913 86.8657C92.2663 86.235 93.6979 85.1669 94.7051 83.7965C95.7124 82.4261 96.25 80.8149 96.25 79.1667C96.25 76.9566 95.2842 74.837 93.5652 73.2742C91.8461 71.7114 89.5145 70.8334 87.0833 70.8334ZM87.0833 83.3334C86.1768 83.3334 85.2907 83.089 84.537 82.6312C83.7833 82.1733 83.1958 81.5226 82.8489 80.7612C82.502 79.9999 82.4112 79.1621 82.5881 78.3538C82.7649 77.5456 83.2014 76.8032 83.8424 76.2204C84.4834 75.6377 85.3001 75.2409 86.1892 75.0801C87.0783 74.9193 87.9998 75.0019 88.8373 75.3172C89.6748 75.6326 90.3906 76.1666 90.8942 76.8518C91.3979 77.537 91.6667 78.3426 91.6667 79.1667C91.6667 80.2718 91.1838 81.3316 90.3243 82.113C89.4647 82.8944 88.2989 83.3334 87.0833 83.3334ZM40.5854 38.1042C40.3724 37.9089 40.1189 37.754 39.8397 37.6482C39.5604 37.5424 39.2609 37.488 38.9583 37.488C38.6558 37.488 38.3563 37.5424 38.077 37.6482C37.7978 37.754 37.5443 37.9089 37.3313 38.1042L28.1646 46.4376C27.9498 46.6312 27.7793 46.8616 27.663 47.1155C27.5466 47.3694 27.4867 47.6417 27.4867 47.9167C27.4867 48.1917 27.5466 48.464 27.663 48.7179C27.7793 48.9718 27.9498 49.2022 28.1646 49.3959L37.3313 57.7292C37.5443 57.9245 37.7978 58.0795 38.077 58.1852C38.3563 58.291 38.6558 58.3455 38.9583 58.3455C39.2609 58.3455 39.5604 58.291 39.8397 58.1852C40.1189 58.0795 40.3724 57.9245 40.5854 57.7292C40.8002 57.5355 40.9707 57.3051 41.0871 57.0513C41.2034 56.7974 41.2633 56.5251 41.2633 56.25C41.2633 55.975 41.2034 55.7027 41.0871 55.4488C40.9707 55.195 40.8002 54.9646 40.5854 54.7709L33.0229 47.9167L40.5854 41.0625C40.8002 40.8689 40.9707 40.6385 41.0871 40.3846C41.2034 40.1307 41.2633 39.8584 41.2633 39.5834C41.2633 39.3084 41.2034 39.0361 41.0871 38.7822C40.9707 38.5283 40.8002 38.2979 40.5854 38.1042ZM72.6688 46.4376L63.5021 38.1042C63.0706 37.7119 62.4853 37.4915 61.875 37.4915C61.2647 37.4915 60.6795 37.7119 60.2479 38.1042C59.8164 38.4965 59.574 39.0286 59.574 39.5834C59.574 40.1382 59.8164 40.6702 60.2479 41.0625L67.8104 47.9167L60.2479 54.7709C60.0331 54.9646 59.8626 55.195 59.7463 55.4488C59.63 55.7027 59.5701 55.975 59.5701 56.25C59.5701 56.5251 59.63 56.7974 59.7463 57.0513C59.8626 57.3051 60.0331 57.5355 60.2479 57.7292C60.461 57.9245 60.7144 58.0795 60.9937 58.1852C61.2729 58.291 61.5725 58.3455 61.875 58.3455C62.1775 58.3455 62.4771 58.291 62.7563 58.1852C63.0356 58.0795 63.2891 57.9245 63.5021 57.7292L72.6688 49.3959C72.8836 49.2022 73.054 48.9718 73.1704 48.7179C73.2867 48.464 73.3466 48.1917 73.3466 47.9167C73.3466 47.6417 73.2867 47.3694 73.1704 47.1155C73.054 46.8616 72.8836 46.6312 72.6688 46.4376ZM53.1667 35.4167C52.8653 35.3562 52.5535 35.3516 52.2502 35.4033C51.9468 35.455 51.658 35.5619 51.4012 35.7176C51.1444 35.8732 50.9248 36.0744 50.7556 36.3091C50.5864 36.5438 50.4711 36.8072 50.4167 37.0834L45.8333 57.9167C45.7668 58.1907 45.7618 58.4741 45.8186 58.7499C45.8755 59.0257 45.9931 59.2882 46.1643 59.5217C46.3355 59.7552 46.5568 59.9548 46.815 60.1086C47.0732 60.2624 47.3629 60.3672 47.6667 60.4167H48.125C48.6611 60.4265 49.1841 60.2651 49.6028 59.9606C50.0215 59.6561 50.3095 59.2277 50.4167 58.7501L55 37.9167C55.0666 37.6427 55.0716 37.3593 55.0147 37.0835C54.9579 36.8077 54.8403 36.5452 54.6691 36.3117C54.4979 36.0783 54.2765 35.8786 54.0184 35.7248C53.7602 35.571 53.4705 35.4662 53.1667 35.4167Z" fill="#45A29E"/>
</svg>
