<svg id="Слой_1" data-name="Слой 1" xmlns="http://www.w3.org/2000/svg" viewBox="0 0 20 20" fill='#45a29e' preserveAspectRatio="none"><path d="M19,7H17.42a.61.61,0,0,1-.05-.12l1.12-1.12a1,1,0,0,0,.29-.71,1.05,1.05,0,0,0-.29-.71L16,1.86v0a10.22,10.22,0,0,1-2,0l-.87.85-.12,0V1a1,1,0,0,0-1-1H8A1,1,0,0,0,7,1V2.58l-.12,0L5.76,1.51a1,1,0,0,0-.71-.29,1.05,1.05,0,0,0-.71.29L1.51,4.34a1.1,1.1,0,0,0-.29.71,1,1,0,0,0,.29.71L2.63,6.88a.61.61,0,0,1,0,.12H1A1,1,0,0,0,0,8v2H0v2H0a1,1,0,0,0,1,1H2.58a.61.61,0,0,1,0,.12L1.51,14.24a1,1,0,0,0-.29.71,1.08,1.08,0,0,0,.29.71l2.83,2.83a1,1,0,0,0,1.42,0h0l1.12-1.12.12.05V19a1,1,0,0,0,1,1h4a1,1,0,0,0,1-1V17.42l.12-.05,1.12,1.12a1,1,0,0,0,.71.29,1,1,0,0,0,.71-.29l2.83-2.83a1,1,0,0,0,.29-.71,1,1,0,0,0-.29-.71l-1.12-1.12a.61.61,0,0,1,.05-.12H19a1,1,0,0,0,1-1V8A1,1,0,0,0,19,7Zm-1,4H16.71a1,1,0,0,0-1,.71,5.17,5.17,0,0,1-.47,1.14A1,1,0,0,0,15.45,14l.91.91L15,16.36l-1-.91a1,1,0,0,0-1.19-.17,5.17,5.17,0,0,1-1.14.47,1,1,0,0,0-.71,1V18H9V16.71a1,1,0,0,0-.71-1,5.37,5.37,0,0,1-1.14-.47A1,1,0,0,0,6,15.41l-.91.91L3.64,15l.91-.91a1,1,0,0,0,.17-1.19,6.35,6.35,0,0,1-.47-1.14,1,1,0,0,0-1-.71H2V9H3.29a1,1,0,0,0,1-.71,6.67,6.67,0,0,1,.47-1.14A1,1,0,0,0,4.55,6l-.91-.91L5.05,3.68,6,4.59a1,1,0,0,0,1.19.17,6,6,0,0,1,1.14-.47,1,1,0,0,0,.71-1V2h2V3.29a1,1,0,0,0,.71,1,5.7,5.7,0,0,1,1.14.47A1,1,0,0,0,14,4.55l.91-.91,1.41,1.41L15.41,6a1,1,0,0,0-.17,1.19,5.37,5.37,0,0,1,.47,1.14,1,1,0,0,0,1,.71H18Z"/><path d="M10,6a4,4,0,1,0,4,4A4,4,0,0,0,10,6Zm0,6a2,2,0,1,1,2-2A2,2,0,0,1,10,12Z"/><path d="M7,1V2.58l-.12,0L5.76,1.51a1,1,0,0,0-.71-.29,1.05,1.05,0,0,0-.71.29L1.86,4h0a10.32,10.32,0,0,1,0,2l.85.86,0,.12H1A1,1,0,0,0,0,8v4a1,1,0,0,0,1,1H2.58l0,.12L1.51,14.24a1,1,0,0,0-.29.71,1.08,1.08,0,0,0,.29.71l2.83,2.83a1.05,1.05,0,0,0,.71.29,1,1,0,0,0,.71-.29l1.12-1.12.12.05V19a1,1,0,0,0,1,1h4a1,1,0,0,0,1-1V17.42l.12-.05,1.12,1.12a1,1,0,0,0,.71.29,1,1,0,0,0,.71-.29l2.83-2.83a1,1,0,0,0,0-1.41h0l-1.12-1.12.05-.12H19a1,1,0,0,0,1-1V8a1,1,0,0,0-1-1H17.42l-.05-.12,1.12-1.12a1,1,0,0,0,.29-.71,1,1,0,0,0-.29-.71L15.66,1.51A1,1,0,0,0,15,1.22a1,1,0,0,0-.71.29L13.12,2.63l-.12,0V1a1,1,0,0,0-1-1H8A1,1,0,0,0,7,1Zm4,1V3.29a1,1,0,0,0,.71,1,5.7,5.7,0,0,1,1.14.47A1,1,0,0,0,14,4.55l.91-.91L16.36,5l-.91,1a1,1,0,0,0-.17,1.19,5.17,5.17,0,0,1,.47,1.14,1,1,0,0,0,1,.71H18v2H16.71a1,1,0,0,0-1,.71,5.17,5.17,0,0,1-.47,1.14A1,1,0,0,0,15.41,14l.91.91L15,16.36l-.91-.91a1,1,0,0,0-1.19-.17,5.7,5.7,0,0,1-1.14.47,1,1,0,0,0-.71,1V18H9V16.71a1,1,0,0,0-.71-1,6,6,0,0,1-1.14-.47A1,1,0,0,0,6,15.45l-.91.91L3.68,15,4.59,14a1,1,0,0,0,.17-1.19,5.7,5.7,0,0,1-.47-1.14,1,1,0,0,0-1-.71H2V9H3.29a1,1,0,0,0,1-.71,5.7,5.7,0,0,1,.47-1.14A1,1,0,0,0,4.55,6l-.91-.91L5.05,3.68,6,4.59a1,1,0,0,0,1.19.17,6,6,0,0,1,1.14-.47,1,1,0,0,0,.71-1V2Z"/><path d="M6,10a4,4,0,1,0,4-4A4,4,0,0,0,6,10Zm6,0a2,2,0,1,1-2-2A2,2,0,0,1,12,10Z"/></svg>