<svg width="42" height="40" viewBox="0 0 42 40" fill="none" xmlns="http://www.w3.org/2000/svg">
<path d="M41.538 7.82223C40.874 5.55469 39.5411 3.57182 37.7347 2.16416C35.9283 0.756508 33.7433 -0.00192385 31.5 3.66493e-06H10.5C8.25665 -0.00192385 6.0717 0.756508 4.2653 2.16416C2.4589 3.57182 1.12603 5.55469 0.462 7.82223C0.158889 8.8892 0.00327629 9.99697 0 11.1111V28.8889C0.0011131 31.8354 1.10772 34.6609 3.07661 36.7443C5.0455 38.8278 7.71557 39.9988 10.5 40H31.5C34.2844 39.9988 36.9545 38.8278 38.9234 36.7443C40.8923 34.6609 41.9989 31.8354 42 28.8889V11.1111C41.9967 9.99697 41.8411 8.8892 41.538 7.82223ZM10.5 4.44445H31.5C32.9946 4.44918 34.4392 5.01438 35.5773 6.03965C36.7153 7.06491 37.4731 8.48387 37.716 10.0444L21 19.6889L4.284 10.0444C4.52689 8.48387 5.28466 7.06491 6.42271 6.03965C7.56075 5.01438 9.00539 4.44918 10.5 4.44445ZM37.8 28.8889C37.795 30.6554 37.1297 32.348 35.9493 33.5971C34.7689 34.8462 33.1693 35.5503 31.5 35.5556H10.5C8.83067 35.5503 7.23113 34.8462 6.05073 33.5971C4.87033 32.348 4.20499 30.6554 4.2 28.8889V15.0667L19.992 24.1778C20.3021 24.3532 20.6483 24.445 21 24.445C21.3517 24.445 21.6979 24.3532 22.008 24.1778L37.8 15.0667V28.8889Z" fill="black"/>
</svg>
