<svg width="250" height="250" viewBox="0 0 250 250" fill="none" xmlns="http://www.w3.org/2000/svg">
<path d="M125 0C100.277 0 76.1099 7.33112 55.5538 21.0663C34.9976 34.8015 18.9761 54.3238 9.51511 77.1646C0.0541607 100.005 -2.42126 125.139 2.4019 149.386C7.22505 173.634 19.1301 195.907 36.6117 213.388C54.0933 230.87 76.3661 242.775 100.614 247.598C124.861 252.421 149.995 249.946 172.835 240.485C195.676 231.024 215.199 215.002 228.934 194.446C242.669 173.89 250 149.723 250 125C250 91.8479 236.83 60.0537 213.388 36.6116C189.946 13.1696 158.152 0 125 0V0ZM125 229.167C104.398 229.167 84.2583 223.057 67.1281 211.611C49.998 200.165 36.6467 183.897 28.7626 164.863C20.8785 145.829 18.8156 124.884 22.8349 104.678C26.8542 84.4717 36.7751 65.911 51.3431 51.343C65.911 36.7751 84.4718 26.8542 104.678 22.8349C124.884 18.8156 145.829 20.8784 164.863 28.7625C183.897 36.6467 200.165 49.998 211.611 67.1281C223.057 84.2582 229.167 104.398 229.167 125C229.167 152.627 218.192 179.122 198.657 198.657C179.122 218.192 152.627 229.167 125 229.167Z" fill="#fff"/>
<path d="M104.166 151.927L69.8435 117.657L55.156 132.344L104.166 181.407L194.843 90.6775L180.156 75.99L104.166 151.927Z" fill="#fff"/>
</svg>
