<svg width="250" height="250" viewBox="0 0 250 250" fill="none" xmlns="http://www.w3.org/2000/svg">
<path d="M125 0C100.277 0 76.1099 7.33112 55.5538 21.0663C34.9976 34.8015 18.9761 54.3238 9.51511 77.1646C0.0541607 100.005 -2.42126 125.139 2.4019 149.386C7.22505 173.634 19.1301 195.907 36.6117 213.388C54.0933 230.87 76.3661 242.775 100.614 247.598C124.861 252.421 149.995 249.946 172.835 240.485C195.676 231.024 215.199 215.002 228.934 194.446C242.669 173.89 250 149.723 250 125C250 91.8479 236.83 60.0537 213.388 36.6116C189.946 13.1696 158.152 0 125 0V0ZM125 229.167C104.398 229.167 84.2583 223.057 67.1281 211.611C49.998 200.165 36.6467 183.897 28.7626 164.863C20.8785 145.829 18.8156 124.884 22.8349 104.678C26.8542 84.4717 36.7751 65.911 51.3431 51.343C65.911 36.7751 84.4718 26.8542 104.678 22.8349C124.884 18.8156 145.829 20.8784 164.863 28.7625C183.897 36.6467 200.165 49.998 211.611 67.1281C223.057 84.2582 229.167 104.398 229.167 125C229.167 152.627 218.192 179.122 198.657 198.657C179.122 218.192 152.627 229.167 125 229.167Z" fill="#fff"/>
<path d="M185.051 185.538C181.943 188.347 177.728 189.926 173.333 189.926C168.938 189.926 164.724 188.347 161.616 185.538L125.007 147.71L88.398 185.525C86.8638 186.935 85.0361 188.056 83.0202 188.824C81.0043 189.592 78.8402 189.992 76.6527 190C74.4651 190.008 72.2975 189.624 70.2748 188.871C68.2521 188.118 66.4143 187.01 64.8675 185.612C63.3206 184.214 62.0954 182.552 61.2624 180.723C60.4293 178.895 60.005 176.935 60.0139 174.957C60.0229 172.98 60.4648 171.023 61.3142 169.201C62.1637 167.378 63.4039 165.726 64.9633 164.339L103.05 125.013L64.9495 85.661C63.3901 84.274 62.1499 82.6216 61.3004 80.7992C60.451 78.9767 60.009 77.0202 60.0001 75.0425C59.9912 73.0649 60.4155 71.1052 61.2485 69.2765C62.0816 67.4479 63.3068 65.7864 64.8536 64.388C66.4005 62.9896 68.2382 61.8819 70.261 61.1288C72.2837 60.3757 74.4513 59.9921 76.6389 60.0001C78.8264 60.0082 80.9905 60.4077 83.0064 61.1757C85.0222 61.9436 86.85 63.0648 88.3842 64.4746L125.007 102.315L161.616 64.4746C163.15 63.0648 164.978 61.9436 166.994 61.1757C169.01 60.4077 171.174 60.0082 173.361 60.0001C175.549 59.9921 177.716 60.3757 179.739 61.1288C181.762 61.8819 183.6 62.9896 185.146 64.388C186.693 65.7864 187.918 67.4479 188.751 69.2765C189.584 71.1052 190.009 73.0649 190 75.0425C189.991 77.0202 189.549 78.9767 188.7 80.7992C187.85 82.6216 186.61 84.274 185.051 85.661L146.964 125.013L185.051 164.339C186.591 165.73 187.814 167.383 188.648 169.201C189.481 171.02 189.911 172.97 189.911 174.938C189.911 176.907 189.481 178.857 188.648 180.675C187.814 182.494 186.591 184.147 185.051 185.538Z" fill="#fff"/>
</svg>
