<svg width="42" height="40" viewBox="0 0 42 40" fill="none" xmlns="http://www.w3.org/2000/svg">
<path d="M16.6646 40C16.378 40 16.0915 39.938 15.8168 39.814C14.9897 39.4356 14.4491 38.5417 14.4491 37.5532V27.9783C14.4491 27.3291 14.6825 26.706 15.099 26.2493L16.3987 24.8106L11.7669 27.0322C11.0934 27.3585 10.3136 27.2899 9.69326 26.8495L1.02346 20.7457C0.320419 20.2498 -0.0695007 19.3625 0.0102556 18.4458C0.0900118 17.529 0.630582 16.7396 1.40747 16.4035L38.9756 0.170162C39.723 -0.156071 40.5708 -0.0060037 41.1911 0.55838C41.8114 1.12276 42.1068 2.01338 41.965 2.88442L36.1842 37.9904C36.0571 38.7473 35.62 39.3965 34.9937 39.7423C34.3704 40.0848 33.6379 40.0848 33.0146 39.7423L22.8826 34.1474L18.2331 39.2823C17.8048 39.7521 17.2406 40 16.6646 40ZM22.4424 28.7254C22.7792 28.7254 23.1189 28.8102 23.432 28.9831L32.3529 33.906L36.8931 6.32293L7.08198 19.2091L11.0816 22.0278L25.3107 15.2095C26.2855 14.743 27.4257 15.1084 28.0254 16.0773C28.6221 17.0495 28.5128 18.3512 27.7595 19.183L18.877 28.9929V31.6452L20.8739 29.4398C21.2993 28.9733 21.8664 28.7254 22.4424 28.7254Z" fill="black"/>
</svg>
