<svg width="40" height="40" viewBox="0 0 40 40" fill="none" xmlns="http://www.w3.org/2000/svg">
<path d="M17.3019 6.75281L14.1072 2.33491C13.6258 1.67283 13.0075 1.12282 12.2945 0.722503C11.5815 0.322191 10.7906 0.0810302 9.97608 0.0155233C9.15743 -0.0449435 8.33538 0.0716894 7.56562 0.357524C6.79586 0.643359 6.09635 1.09172 5.51449 1.67223L2.20962 4.98565C1.47114 5.74172 0.894729 6.64126 0.515831 7.62894C0.136934 8.61662 -0.0364398 9.67156 0.0063679 10.7289C0.0063679 15.6162 3.75189 21.7736 11.0226 28.9527C19.5327 37.2362 25.4264 39.9974 29.4473 39.9974C30.4695 40.0244 31.4862 39.8396 32.4339 39.4548C33.3816 39.07 34.24 38.4933 34.9554 37.7609L38.2603 34.4475C38.8616 33.8819 39.3286 33.1883 39.6269 32.4176C39.9252 31.647 40.0471 30.8191 39.9837 29.9949C39.9202 29.1707 39.6731 28.3714 39.2604 27.6558C38.8477 26.9401 38.2801 26.3265 37.5993 25.8602L33.2754 22.74C32.5556 22.2225 31.7263 21.8784 30.8521 21.7348C29.978 21.5911 29.0825 21.6516 28.2355 21.9117L24.132 23.2094C23.8756 23.1913 23.6286 23.1055 23.4159 22.9609C20.972 21.2019 18.7924 19.1004 16.9439 16.7207C16.9258 16.6202 16.9258 16.5174 16.9439 16.4169C17.3019 15.202 17.9078 13.2416 18.3209 11.8886C18.5882 11.0149 18.635 10.0883 18.4571 9.19191C18.2793 8.29556 17.8823 7.45747 17.3019 6.75281ZM20.8546 27.8206C22.3272 28.6299 24.0575 28.8281 25.6742 28.3729L29.9155 27.1027L34.3495 30.5542L31.0722 33.7848C29.7502 35.0825 24.8756 34.696 14.9334 24.9214C6.6712 16.8863 5.54203 12.4961 5.54203 10.6185C5.56272 9.9816 5.82934 9.37769 6.28563 8.93414L9.81083 5.64833L13.0606 10.2043C12.62 11.5573 11.9865 13.5729 11.6561 14.7602C11.2637 16.0272 11.3123 17.3902 11.7938 18.6259C14.1689 22.3057 17.2945 25.4394 20.9648 27.8206H20.8546Z" fill="black"/>
</svg>
